<mxfile host="app.diagrams.net" modified="2022-11-08T01:41:02.181Z" agent="5.0 (Windows NT 10.0; Win64; x64) AppleWebKit/537.36 (KHTML, like Gecko) Chrome/107.0.0.0 Safari/537.36 Edg/107.0.1418.35" etag="WWyeWgPGFW5uPmFQdHwT" version="20.5.3" type="github">
  <diagram id="Z0ZnqTBoVo8ubZDgD4OC" name="第 1 页">
    <mxGraphModel dx="1865" dy="579" grid="1" gridSize="10" guides="1" tooltips="1" connect="1" arrows="1" fold="1" page="1" pageScale="1" pageWidth="827" pageHeight="1169" math="0" shadow="0">
      <root>
        <mxCell id="0" />
        <mxCell id="1" parent="0" />
        <mxCell id="C50PbBCwyJRlSNq6Uq3W-1" value="clock" style="rounded=0;whiteSpace=wrap;html=1;" vertex="1" parent="1">
          <mxGeometry x="40" y="240" width="720" height="40" as="geometry" />
        </mxCell>
        <mxCell id="C50PbBCwyJRlSNq6Uq3W-2" value="" style="rounded=0;whiteSpace=wrap;html=1;" vertex="1" parent="1">
          <mxGeometry x="240" y="320" width="120" height="280" as="geometry" />
        </mxCell>
        <mxCell id="C50PbBCwyJRlSNq6Uq3W-3" value="" style="rounded=0;whiteSpace=wrap;html=1;" vertex="1" parent="1">
          <mxGeometry x="440" y="320" width="120" height="280" as="geometry" />
        </mxCell>
        <mxCell id="C50PbBCwyJRlSNq6Uq3W-4" value="" style="rounded=0;whiteSpace=wrap;html=1;" vertex="1" parent="1">
          <mxGeometry x="40" y="320" width="120" height="280" as="geometry" />
        </mxCell>
        <mxCell id="C50PbBCwyJRlSNq6Uq3W-7" value="" style="rounded=0;whiteSpace=wrap;html=1;" vertex="1" parent="1">
          <mxGeometry x="640" y="320" width="120" height="280" as="geometry" />
        </mxCell>
        <mxCell id="C50PbBCwyJRlSNq6Uq3W-11" value="" style="endArrow=classic;html=1;rounded=0;entryX=0;entryY=0.25;entryDx=0;entryDy=0;entryPerimeter=0;" edge="1" parent="1" target="C50PbBCwyJRlSNq6Uq3W-1">
          <mxGeometry relative="1" as="geometry">
            <mxPoint x="-30" y="250" as="sourcePoint" />
            <mxPoint x="550" y="280" as="targetPoint" />
          </mxGeometry>
        </mxCell>
        <mxCell id="C50PbBCwyJRlSNq6Uq3W-12" value="clk" style="edgeLabel;resizable=0;html=1;align=center;verticalAlign=middle;" connectable="0" vertex="1" parent="C50PbBCwyJRlSNq6Uq3W-11">
          <mxGeometry relative="1" as="geometry" />
        </mxCell>
        <mxCell id="C50PbBCwyJRlSNq6Uq3W-13" value="" style="endArrow=classic;html=1;rounded=0;entryX=0;entryY=0.75;entryDx=0;entryDy=0;" edge="1" parent="1" target="C50PbBCwyJRlSNq6Uq3W-1">
          <mxGeometry relative="1" as="geometry">
            <mxPoint x="-30" y="270" as="sourcePoint" />
            <mxPoint x="550" y="280" as="targetPoint" />
            <Array as="points">
              <mxPoint x="-10" y="270" />
            </Array>
          </mxGeometry>
        </mxCell>
        <mxCell id="C50PbBCwyJRlSNq6Uq3W-14" value="reset" style="edgeLabel;resizable=0;html=1;align=center;verticalAlign=middle;" connectable="0" vertex="1" parent="C50PbBCwyJRlSNq6Uq3W-13">
          <mxGeometry relative="1" as="geometry" />
        </mxCell>
        <mxCell id="C50PbBCwyJRlSNq6Uq3W-16" value="PC" style="rounded=0;whiteSpace=wrap;html=1;" vertex="1" parent="1">
          <mxGeometry x="50" y="445" width="100" height="30" as="geometry" />
        </mxCell>
        <mxCell id="C50PbBCwyJRlSNq6Uq3W-17" value="IR" style="rounded=0;whiteSpace=wrap;html=1;" vertex="1" parent="1">
          <mxGeometry x="50" y="500" width="100" height="30" as="geometry" />
        </mxCell>
        <mxCell id="C50PbBCwyJRlSNq6Uq3W-18" value="Rtemp" style="rounded=0;whiteSpace=wrap;html=1;" vertex="1" parent="1">
          <mxGeometry x="450" y="445" width="100" height="30" as="geometry" />
        </mxCell>
        <mxCell id="C50PbBCwyJRlSNq6Uq3W-19" value="aluout" style="rounded=0;whiteSpace=wrap;html=1;" vertex="1" parent="1">
          <mxGeometry x="250" y="445" width="100" height="30" as="geometry" />
        </mxCell>
        <mxCell id="C50PbBCwyJRlSNq6Uq3W-20" value="Addr" style="rounded=0;whiteSpace=wrap;html=1;" vertex="1" parent="1">
          <mxGeometry x="250" y="500" width="100" height="30" as="geometry" />
        </mxCell>
        <mxCell id="C50PbBCwyJRlSNq6Uq3W-21" value="R0~R7" style="rounded=0;whiteSpace=wrap;html=1;" vertex="1" parent="1">
          <mxGeometry x="250" y="555" width="100" height="30" as="geometry" />
        </mxCell>
        <mxCell id="C50PbBCwyJRlSNq6Uq3W-22" value="Rupdata" style="rounded=0;whiteSpace=wrap;html=1;" vertex="1" parent="1">
          <mxGeometry x="650" y="480" width="100" height="30" as="geometry" />
        </mxCell>
        <mxCell id="C50PbBCwyJRlSNq6Uq3W-23" value="writeback" style="text;html=1;strokeColor=none;fillColor=none;align=center;verticalAlign=middle;whiteSpace=wrap;rounded=0;" vertex="1" parent="1">
          <mxGeometry x="670" y="330" width="60" height="30" as="geometry" />
        </mxCell>
        <mxCell id="C50PbBCwyJRlSNq6Uq3W-24" value="Memory" style="text;html=1;strokeColor=none;fillColor=none;align=center;verticalAlign=middle;whiteSpace=wrap;rounded=0;" vertex="1" parent="1">
          <mxGeometry x="470" y="330" width="60" height="30" as="geometry" />
        </mxCell>
        <mxCell id="C50PbBCwyJRlSNq6Uq3W-25" value="ALU" style="text;html=1;strokeColor=none;fillColor=none;align=center;verticalAlign=middle;whiteSpace=wrap;rounded=0;" vertex="1" parent="1">
          <mxGeometry x="270" y="330" width="60" height="30" as="geometry" />
        </mxCell>
        <mxCell id="C50PbBCwyJRlSNq6Uq3W-26" value="fetch" style="text;html=1;strokeColor=none;fillColor=none;align=center;verticalAlign=middle;whiteSpace=wrap;rounded=0;" vertex="1" parent="1">
          <mxGeometry x="70" y="330" width="60" height="30" as="geometry" />
        </mxCell>
        <mxCell id="C50PbBCwyJRlSNq6Uq3W-27" value="Addr" style="rounded=0;whiteSpace=wrap;html=1;" vertex="1" parent="1">
          <mxGeometry x="450" y="500" width="100" height="30" as="geometry" />
        </mxCell>
        <mxCell id="C50PbBCwyJRlSNq6Uq3W-28" value="Rdata" style="rounded=0;whiteSpace=wrap;html=1;" vertex="1" parent="1">
          <mxGeometry x="650" y="530" width="100" height="30" as="geometry" />
        </mxCell>
        <mxCell id="C50PbBCwyJRlSNq6Uq3W-29" value="PCdata" style="rounded=0;whiteSpace=wrap;html=1;" vertex="1" parent="1">
          <mxGeometry x="650" y="430" width="100" height="30" as="geometry" />
        </mxCell>
        <mxCell id="C50PbBCwyJRlSNq6Uq3W-30" value="PCupdata" style="rounded=0;whiteSpace=wrap;html=1;" vertex="1" parent="1">
          <mxGeometry x="650" y="380" width="100" height="30" as="geometry" />
        </mxCell>
        <mxCell id="C50PbBCwyJRlSNq6Uq3W-33" value="A" style="rounded=0;whiteSpace=wrap;html=1;" vertex="1" parent="1">
          <mxGeometry x="250" y="390" width="40" height="40" as="geometry" />
        </mxCell>
        <mxCell id="C50PbBCwyJRlSNq6Uq3W-34" value="B" style="rounded=0;whiteSpace=wrap;html=1;" vertex="1" parent="1">
          <mxGeometry x="310" y="390" width="40" height="40" as="geometry" />
        </mxCell>
        <mxCell id="C50PbBCwyJRlSNq6Uq3W-35" value="visit" style="rounded=0;whiteSpace=wrap;html=1;" vertex="1" parent="1">
          <mxGeometry x="40" y="660" width="720" height="40" as="geometry" />
        </mxCell>
        <mxCell id="C50PbBCwyJRlSNq6Uq3W-36" value="" style="rounded=0;whiteSpace=wrap;html=1;" vertex="1" parent="1">
          <mxGeometry x="40" y="750" width="720" height="40" as="geometry" />
        </mxCell>
        <mxCell id="C50PbBCwyJRlSNq6Uq3W-37" value="" style="endArrow=classic;html=1;rounded=0;entryX=0.11;entryY=-0.065;entryDx=0;entryDy=0;entryPerimeter=0;exitX=0.11;exitY=0.975;exitDx=0;exitDy=0;exitPerimeter=0;" edge="1" parent="1" source="C50PbBCwyJRlSNq6Uq3W-35" target="C50PbBCwyJRlSNq6Uq3W-36">
          <mxGeometry relative="1" as="geometry">
            <mxPoint x="450" y="580" as="sourcePoint" />
            <mxPoint x="550" y="580" as="targetPoint" />
            <Array as="points" />
          </mxGeometry>
        </mxCell>
        <mxCell id="C50PbBCwyJRlSNq6Uq3W-38" value="nMreq" style="edgeLabel;resizable=0;html=1;align=center;verticalAlign=middle;" connectable="0" vertex="1" parent="C50PbBCwyJRlSNq6Uq3W-37">
          <mxGeometry relative="1" as="geometry" />
        </mxCell>
        <mxCell id="C50PbBCwyJRlSNq6Uq3W-39" value="" style="endArrow=classic;html=1;rounded=0;exitX=0.444;exitY=1.045;exitDx=0;exitDy=0;exitPerimeter=0;entryX=0.441;entryY=-0.085;entryDx=0;entryDy=0;entryPerimeter=0;" edge="1" parent="1" source="C50PbBCwyJRlSNq6Uq3W-35" target="C50PbBCwyJRlSNq6Uq3W-36">
          <mxGeometry relative="1" as="geometry">
            <mxPoint x="359" y="700" as="sourcePoint" />
            <mxPoint x="359" y="760" as="targetPoint" />
          </mxGeometry>
        </mxCell>
        <mxCell id="C50PbBCwyJRlSNq6Uq3W-40" value="nWR" style="edgeLabel;resizable=0;html=1;align=center;verticalAlign=middle;" connectable="0" vertex="1" parent="C50PbBCwyJRlSNq6Uq3W-39">
          <mxGeometry relative="1" as="geometry" />
        </mxCell>
        <mxCell id="C50PbBCwyJRlSNq6Uq3W-41" value="" style="endArrow=classic;html=1;rounded=0;entryX=0.166;entryY=0.015;entryDx=0;entryDy=0;entryPerimeter=0;exitX=0.166;exitY=1.005;exitDx=0;exitDy=0;exitPerimeter=0;" edge="1" parent="1" source="C50PbBCwyJRlSNq6Uq3W-35" target="C50PbBCwyJRlSNq6Uq3W-36">
          <mxGeometry relative="1" as="geometry">
            <mxPoint x="160" y="700" as="sourcePoint" />
            <mxPoint x="250" y="620" as="targetPoint" />
          </mxGeometry>
        </mxCell>
        <mxCell id="C50PbBCwyJRlSNq6Uq3W-42" value="nBHE" style="edgeLabel;resizable=0;html=1;align=center;verticalAlign=middle;" connectable="0" vertex="1" parent="C50PbBCwyJRlSNq6Uq3W-41">
          <mxGeometry relative="1" as="geometry" />
        </mxCell>
        <mxCell id="C50PbBCwyJRlSNq6Uq3W-43" value="" style="endArrow=classic;html=1;rounded=0;exitX=0.389;exitY=1;exitDx=0;exitDy=0;exitPerimeter=0;entryX=0.388;entryY=-0.025;entryDx=0;entryDy=0;entryPerimeter=0;" edge="1" parent="1" source="C50PbBCwyJRlSNq6Uq3W-35" target="C50PbBCwyJRlSNq6Uq3W-36">
          <mxGeometry relative="1" as="geometry">
            <mxPoint x="450" y="580" as="sourcePoint" />
            <mxPoint x="550" y="580" as="targetPoint" />
          </mxGeometry>
        </mxCell>
        <mxCell id="C50PbBCwyJRlSNq6Uq3W-44" value="nRD" style="edgeLabel;resizable=0;html=1;align=center;verticalAlign=middle;" connectable="0" vertex="1" parent="C50PbBCwyJRlSNq6Uq3W-43">
          <mxGeometry relative="1" as="geometry" />
        </mxCell>
        <mxCell id="C50PbBCwyJRlSNq6Uq3W-45" value="" style="endArrow=classic;html=1;rounded=0;entryX=0.333;entryY=0;entryDx=0;entryDy=0;entryPerimeter=0;exitX=0.334;exitY=1.065;exitDx=0;exitDy=0;exitPerimeter=0;" edge="1" parent="1" source="C50PbBCwyJRlSNq6Uq3W-35" target="C50PbBCwyJRlSNq6Uq3W-36">
          <mxGeometry relative="1" as="geometry">
            <mxPoint x="280" y="700" as="sourcePoint" />
            <mxPoint x="550" y="580" as="targetPoint" />
          </mxGeometry>
        </mxCell>
        <mxCell id="C50PbBCwyJRlSNq6Uq3W-46" value="IRout" style="edgeLabel;resizable=0;html=1;align=center;verticalAlign=middle;" connectable="0" vertex="1" parent="C50PbBCwyJRlSNq6Uq3W-45">
          <mxGeometry relative="1" as="geometry" />
        </mxCell>
        <mxCell id="C50PbBCwyJRlSNq6Uq3W-47" value="" style="endArrow=classic;html=1;rounded=0;exitX=0.278;exitY=1.015;exitDx=0;exitDy=0;exitPerimeter=0;entryX=0.276;entryY=0.035;entryDx=0;entryDy=0;entryPerimeter=0;" edge="1" parent="1" source="C50PbBCwyJRlSNq6Uq3W-35" target="C50PbBCwyJRlSNq6Uq3W-36">
          <mxGeometry relative="1" as="geometry">
            <mxPoint x="390" y="630" as="sourcePoint" />
            <mxPoint x="490" y="630" as="targetPoint" />
          </mxGeometry>
        </mxCell>
        <mxCell id="C50PbBCwyJRlSNq6Uq3W-48" value="ABus" style="edgeLabel;resizable=0;html=1;align=center;verticalAlign=middle;" connectable="0" vertex="1" parent="C50PbBCwyJRlSNq6Uq3W-47">
          <mxGeometry relative="1" as="geometry" />
        </mxCell>
        <mxCell id="C50PbBCwyJRlSNq6Uq3W-49" value="" style="endArrow=classic;html=1;rounded=0;exitX=0.222;exitY=1.035;exitDx=0;exitDy=0;exitPerimeter=0;entryX=0.22;entryY=0.005;entryDx=0;entryDy=0;entryPerimeter=0;" edge="1" parent="1" source="C50PbBCwyJRlSNq6Uq3W-35" target="C50PbBCwyJRlSNq6Uq3W-36">
          <mxGeometry relative="1" as="geometry">
            <mxPoint x="450" y="580" as="sourcePoint" />
            <mxPoint x="200" y="760" as="targetPoint" />
          </mxGeometry>
        </mxCell>
        <mxCell id="C50PbBCwyJRlSNq6Uq3W-50" value="nBLE" style="edgeLabel;resizable=0;html=1;align=center;verticalAlign=middle;" connectable="0" vertex="1" parent="C50PbBCwyJRlSNq6Uq3W-49">
          <mxGeometry relative="1" as="geometry" />
        </mxCell>
        <mxCell id="C50PbBCwyJRlSNq6Uq3W-51" value="" style="endArrow=classic;html=1;rounded=0;exitX=0.5;exitY=1;exitDx=0;exitDy=0;entryX=0.5;entryY=0;entryDx=0;entryDy=0;" edge="1" parent="1" source="C50PbBCwyJRlSNq6Uq3W-35" target="C50PbBCwyJRlSNq6Uq3W-36">
          <mxGeometry relative="1" as="geometry">
            <mxPoint x="450" y="580" as="sourcePoint" />
            <mxPoint x="400" y="750" as="targetPoint" />
          </mxGeometry>
        </mxCell>
        <mxCell id="C50PbBCwyJRlSNq6Uq3W-52" value="datar" style="edgeLabel;resizable=0;html=1;align=center;verticalAlign=middle;" connectable="0" vertex="1" parent="C50PbBCwyJRlSNq6Uq3W-51">
          <mxGeometry relative="1" as="geometry" />
        </mxCell>
        <mxCell id="C50PbBCwyJRlSNq6Uq3W-53" value="" style="endArrow=classic;startArrow=classic;html=1;rounded=0;exitX=0.554;exitY=0.025;exitDx=0;exitDy=0;exitPerimeter=0;entryX=0.556;entryY=1.075;entryDx=0;entryDy=0;entryPerimeter=0;" edge="1" parent="1" source="C50PbBCwyJRlSNq6Uq3W-36" target="C50PbBCwyJRlSNq6Uq3W-35">
          <mxGeometry width="50" height="50" relative="1" as="geometry">
            <mxPoint x="470" y="610" as="sourcePoint" />
            <mxPoint x="520" y="560" as="targetPoint" />
          </mxGeometry>
        </mxCell>
        <mxCell id="C50PbBCwyJRlSNq6Uq3W-57" value="DBus" style="text;html=1;strokeColor=none;fillColor=none;align=center;verticalAlign=middle;whiteSpace=wrap;rounded=0;" vertex="1" parent="1">
          <mxGeometry x="430" y="710" width="60" height="30" as="geometry" />
        </mxCell>
        <mxCell id="C50PbBCwyJRlSNq6Uq3W-58" value="" style="endArrow=classic;html=1;rounded=0;" edge="1" parent="1">
          <mxGeometry relative="1" as="geometry">
            <mxPoint x="450" y="430" as="sourcePoint" />
            <mxPoint x="550" y="430" as="targetPoint" />
          </mxGeometry>
        </mxCell>
        <mxCell id="C50PbBCwyJRlSNq6Uq3W-59" value="Label" style="edgeLabel;resizable=0;html=1;align=center;verticalAlign=middle;" connectable="0" vertex="1" parent="C50PbBCwyJRlSNq6Uq3W-58">
          <mxGeometry relative="1" as="geometry" />
        </mxCell>
        <mxCell id="C50PbBCwyJRlSNq6Uq3W-60" value="" style="endArrow=classic;html=1;rounded=0;" edge="1" parent="1">
          <mxGeometry relative="1" as="geometry">
            <mxPoint x="450" y="430" as="sourcePoint" />
            <mxPoint x="550" y="430" as="targetPoint" />
          </mxGeometry>
        </mxCell>
        <mxCell id="C50PbBCwyJRlSNq6Uq3W-61" value="Label" style="edgeLabel;resizable=0;html=1;align=center;verticalAlign=middle;" connectable="0" vertex="1" parent="C50PbBCwyJRlSNq6Uq3W-60">
          <mxGeometry relative="1" as="geometry" />
        </mxCell>
        <mxCell id="C50PbBCwyJRlSNq6Uq3W-62" value="" style="endArrow=classic;html=1;rounded=0;" edge="1" parent="1">
          <mxGeometry relative="1" as="geometry">
            <mxPoint x="450" y="430" as="sourcePoint" />
            <mxPoint x="550" y="430" as="targetPoint" />
          </mxGeometry>
        </mxCell>
        <mxCell id="C50PbBCwyJRlSNq6Uq3W-63" value="Label" style="edgeLabel;resizable=0;html=1;align=center;verticalAlign=middle;" connectable="0" vertex="1" parent="C50PbBCwyJRlSNq6Uq3W-62">
          <mxGeometry relative="1" as="geometry" />
        </mxCell>
        <mxCell id="C50PbBCwyJRlSNq6Uq3W-64" value="" style="endArrow=classic;html=1;rounded=0;" edge="1" parent="1">
          <mxGeometry relative="1" as="geometry">
            <mxPoint x="450" y="430" as="sourcePoint" />
            <mxPoint x="550" y="430" as="targetPoint" />
          </mxGeometry>
        </mxCell>
        <mxCell id="C50PbBCwyJRlSNq6Uq3W-65" value="Label" style="edgeLabel;resizable=0;html=1;align=center;verticalAlign=middle;" connectable="0" vertex="1" parent="C50PbBCwyJRlSNq6Uq3W-64">
          <mxGeometry relative="1" as="geometry" />
        </mxCell>
        <mxCell id="C50PbBCwyJRlSNq6Uq3W-66" value="" style="endArrow=classic;html=1;rounded=0;" edge="1" parent="1">
          <mxGeometry relative="1" as="geometry">
            <mxPoint x="450" y="430" as="sourcePoint" />
            <mxPoint x="550" y="430" as="targetPoint" />
          </mxGeometry>
        </mxCell>
        <mxCell id="C50PbBCwyJRlSNq6Uq3W-67" value="Label" style="edgeLabel;resizable=0;html=1;align=center;verticalAlign=middle;" connectable="0" vertex="1" parent="C50PbBCwyJRlSNq6Uq3W-66">
          <mxGeometry relative="1" as="geometry" />
        </mxCell>
        <mxCell id="C50PbBCwyJRlSNq6Uq3W-68" value="" style="endArrow=classic;html=1;rounded=0;" edge="1" parent="1">
          <mxGeometry relative="1" as="geometry">
            <mxPoint x="450" y="430" as="sourcePoint" />
            <mxPoint x="550" y="430" as="targetPoint" />
          </mxGeometry>
        </mxCell>
        <mxCell id="C50PbBCwyJRlSNq6Uq3W-69" value="Label" style="edgeLabel;resizable=0;html=1;align=center;verticalAlign=middle;" connectable="0" vertex="1" parent="C50PbBCwyJRlSNq6Uq3W-68">
          <mxGeometry relative="1" as="geometry" />
        </mxCell>
        <mxCell id="C50PbBCwyJRlSNq6Uq3W-70" value="" style="endArrow=classic;html=1;rounded=0;" edge="1" parent="1">
          <mxGeometry relative="1" as="geometry">
            <mxPoint x="450" y="430" as="sourcePoint" />
            <mxPoint x="550" y="430" as="targetPoint" />
          </mxGeometry>
        </mxCell>
        <mxCell id="C50PbBCwyJRlSNq6Uq3W-71" value="Label" style="edgeLabel;resizable=0;html=1;align=center;verticalAlign=middle;" connectable="0" vertex="1" parent="C50PbBCwyJRlSNq6Uq3W-70">
          <mxGeometry relative="1" as="geometry" />
        </mxCell>
        <mxCell id="C50PbBCwyJRlSNq6Uq3W-72" value="" style="endArrow=classic;html=1;rounded=0;" edge="1" parent="1">
          <mxGeometry relative="1" as="geometry">
            <mxPoint x="450" y="430" as="sourcePoint" />
            <mxPoint x="550" y="430" as="targetPoint" />
          </mxGeometry>
        </mxCell>
        <mxCell id="C50PbBCwyJRlSNq6Uq3W-73" value="Label" style="edgeLabel;resizable=0;html=1;align=center;verticalAlign=middle;" connectable="0" vertex="1" parent="C50PbBCwyJRlSNq6Uq3W-72">
          <mxGeometry relative="1" as="geometry" />
        </mxCell>
        <mxCell id="C50PbBCwyJRlSNq6Uq3W-74" value="" style="endArrow=classic;html=1;rounded=0;" edge="1" parent="1">
          <mxGeometry relative="1" as="geometry">
            <mxPoint x="450" y="430" as="sourcePoint" />
            <mxPoint x="550" y="430" as="targetPoint" />
          </mxGeometry>
        </mxCell>
        <mxCell id="C50PbBCwyJRlSNq6Uq3W-75" value="Label" style="edgeLabel;resizable=0;html=1;align=center;verticalAlign=middle;" connectable="0" vertex="1" parent="C50PbBCwyJRlSNq6Uq3W-74">
          <mxGeometry relative="1" as="geometry" />
        </mxCell>
        <mxCell id="C50PbBCwyJRlSNq6Uq3W-76" value="" style="endArrow=classic;html=1;rounded=0;" edge="1" parent="1">
          <mxGeometry relative="1" as="geometry">
            <mxPoint x="450" y="430" as="sourcePoint" />
            <mxPoint x="550" y="430" as="targetPoint" />
          </mxGeometry>
        </mxCell>
        <mxCell id="C50PbBCwyJRlSNq6Uq3W-77" value="Label" style="edgeLabel;resizable=0;html=1;align=center;verticalAlign=middle;" connectable="0" vertex="1" parent="C50PbBCwyJRlSNq6Uq3W-76">
          <mxGeometry relative="1" as="geometry" />
        </mxCell>
        <mxCell id="C50PbBCwyJRlSNq6Uq3W-78" value="" style="endArrow=classic;html=1;rounded=0;" edge="1" parent="1">
          <mxGeometry relative="1" as="geometry">
            <mxPoint x="450" y="430" as="sourcePoint" />
            <mxPoint x="550" y="430" as="targetPoint" />
          </mxGeometry>
        </mxCell>
        <mxCell id="C50PbBCwyJRlSNq6Uq3W-79" value="Label" style="edgeLabel;resizable=0;html=1;align=center;verticalAlign=middle;" connectable="0" vertex="1" parent="C50PbBCwyJRlSNq6Uq3W-78">
          <mxGeometry relative="1" as="geometry" />
        </mxCell>
        <mxCell id="C50PbBCwyJRlSNq6Uq3W-80" value="" style="endArrow=classic;html=1;rounded=0;" edge="1" parent="1">
          <mxGeometry relative="1" as="geometry">
            <mxPoint x="450" y="430" as="sourcePoint" />
            <mxPoint x="550" y="430" as="targetPoint" />
          </mxGeometry>
        </mxCell>
        <mxCell id="C50PbBCwyJRlSNq6Uq3W-81" value="Label" style="edgeLabel;resizable=0;html=1;align=center;verticalAlign=middle;" connectable="0" vertex="1" parent="C50PbBCwyJRlSNq6Uq3W-80">
          <mxGeometry relative="1" as="geometry" />
        </mxCell>
        <mxCell id="C50PbBCwyJRlSNq6Uq3W-82" value="" style="endArrow=classic;html=1;rounded=0;" edge="1" parent="1">
          <mxGeometry relative="1" as="geometry">
            <mxPoint x="450" y="430" as="sourcePoint" />
            <mxPoint x="550" y="430" as="targetPoint" />
          </mxGeometry>
        </mxCell>
        <mxCell id="C50PbBCwyJRlSNq6Uq3W-83" value="Label" style="edgeLabel;resizable=0;html=1;align=center;verticalAlign=middle;" connectable="0" vertex="1" parent="C50PbBCwyJRlSNq6Uq3W-82">
          <mxGeometry relative="1" as="geometry" />
        </mxCell>
        <mxCell id="C50PbBCwyJRlSNq6Uq3W-84" value="" style="endArrow=classic;html=1;rounded=0;" edge="1" parent="1">
          <mxGeometry relative="1" as="geometry">
            <mxPoint x="450" y="430" as="sourcePoint" />
            <mxPoint x="550" y="430" as="targetPoint" />
          </mxGeometry>
        </mxCell>
        <mxCell id="C50PbBCwyJRlSNq6Uq3W-85" value="Label" style="edgeLabel;resizable=0;html=1;align=center;verticalAlign=middle;" connectable="0" vertex="1" parent="C50PbBCwyJRlSNq6Uq3W-84">
          <mxGeometry relative="1" as="geometry" />
        </mxCell>
        <mxCell id="C50PbBCwyJRlSNq6Uq3W-86" value="" style="endArrow=classic;html=1;rounded=0;" edge="1" parent="1">
          <mxGeometry relative="1" as="geometry">
            <mxPoint x="450" y="430" as="sourcePoint" />
            <mxPoint x="550" y="430" as="targetPoint" />
          </mxGeometry>
        </mxCell>
        <mxCell id="C50PbBCwyJRlSNq6Uq3W-87" value="Label" style="edgeLabel;resizable=0;html=1;align=center;verticalAlign=middle;" connectable="0" vertex="1" parent="C50PbBCwyJRlSNq6Uq3W-86">
          <mxGeometry relative="1" as="geometry" />
        </mxCell>
        <mxCell id="C50PbBCwyJRlSNq6Uq3W-88" value="" style="endArrow=classic;html=1;rounded=0;" edge="1" parent="1">
          <mxGeometry relative="1" as="geometry">
            <mxPoint x="450" y="430" as="sourcePoint" />
            <mxPoint x="550" y="430" as="targetPoint" />
          </mxGeometry>
        </mxCell>
        <mxCell id="C50PbBCwyJRlSNq6Uq3W-89" value="Label" style="edgeLabel;resizable=0;html=1;align=center;verticalAlign=middle;" connectable="0" vertex="1" parent="C50PbBCwyJRlSNq6Uq3W-88">
          <mxGeometry relative="1" as="geometry" />
        </mxCell>
        <mxCell id="C50PbBCwyJRlSNq6Uq3W-90" value="" style="endArrow=classic;html=1;rounded=0;" edge="1" parent="1">
          <mxGeometry relative="1" as="geometry">
            <mxPoint x="450" y="430" as="sourcePoint" />
            <mxPoint x="550" y="430" as="targetPoint" />
          </mxGeometry>
        </mxCell>
        <mxCell id="C50PbBCwyJRlSNq6Uq3W-91" value="Label" style="edgeLabel;resizable=0;html=1;align=center;verticalAlign=middle;" connectable="0" vertex="1" parent="C50PbBCwyJRlSNq6Uq3W-90">
          <mxGeometry relative="1" as="geometry" />
        </mxCell>
        <mxCell id="C50PbBCwyJRlSNq6Uq3W-92" value="" style="endArrow=classic;html=1;rounded=0;" edge="1" parent="1">
          <mxGeometry relative="1" as="geometry">
            <mxPoint x="450" y="430" as="sourcePoint" />
            <mxPoint x="550" y="430" as="targetPoint" />
          </mxGeometry>
        </mxCell>
        <mxCell id="C50PbBCwyJRlSNq6Uq3W-93" value="Label" style="edgeLabel;resizable=0;html=1;align=center;verticalAlign=middle;" connectable="0" vertex="1" parent="C50PbBCwyJRlSNq6Uq3W-92">
          <mxGeometry relative="1" as="geometry" />
        </mxCell>
        <mxCell id="C50PbBCwyJRlSNq6Uq3W-94" value="" style="endArrow=classic;html=1;rounded=0;" edge="1" parent="1">
          <mxGeometry relative="1" as="geometry">
            <mxPoint x="450" y="430" as="sourcePoint" />
            <mxPoint x="550" y="430" as="targetPoint" />
          </mxGeometry>
        </mxCell>
        <mxCell id="C50PbBCwyJRlSNq6Uq3W-95" value="Label" style="edgeLabel;resizable=0;html=1;align=center;verticalAlign=middle;" connectable="0" vertex="1" parent="C50PbBCwyJRlSNq6Uq3W-94">
          <mxGeometry relative="1" as="geometry" />
        </mxCell>
        <mxCell id="C50PbBCwyJRlSNq6Uq3W-96" value="" style="endArrow=classic;html=1;rounded=0;exitX=1.018;exitY=0.196;exitDx=0;exitDy=0;exitPerimeter=0;" edge="1" parent="1" source="C50PbBCwyJRlSNq6Uq3W-2">
          <mxGeometry relative="1" as="geometry">
            <mxPoint x="380" y="380" as="sourcePoint" />
            <mxPoint x="420" y="374" as="targetPoint" />
          </mxGeometry>
        </mxCell>
        <mxCell id="C50PbBCwyJRlSNq6Uq3W-97" value="Label" style="edgeLabel;resizable=0;html=1;align=center;verticalAlign=middle;" connectable="0" vertex="1" parent="C50PbBCwyJRlSNq6Uq3W-96">
          <mxGeometry relative="1" as="geometry" />
        </mxCell>
        <mxCell id="C50PbBCwyJRlSNq6Uq3W-98" value="" style="endArrow=classic;html=1;rounded=0;entryX=0.012;entryY=0.356;entryDx=0;entryDy=0;entryPerimeter=0;" edge="1" parent="1" target="C50PbBCwyJRlSNq6Uq3W-2">
          <mxGeometry relative="1" as="geometry">
            <mxPoint x="180" y="420" as="sourcePoint" />
            <mxPoint x="230" y="420" as="targetPoint" />
          </mxGeometry>
        </mxCell>
        <mxCell id="C50PbBCwyJRlSNq6Uq3W-99" value="Label" style="edgeLabel;resizable=0;html=1;align=center;verticalAlign=middle;" connectable="0" vertex="1" parent="C50PbBCwyJRlSNq6Uq3W-98">
          <mxGeometry relative="1" as="geometry" />
        </mxCell>
        <mxCell id="C50PbBCwyJRlSNq6Uq3W-100" value="" style="endArrow=classic;html=1;rounded=0;entryX=0.005;entryY=0.291;entryDx=0;entryDy=0;entryPerimeter=0;" edge="1" parent="1" target="C50PbBCwyJRlSNq6Uq3W-2">
          <mxGeometry relative="1" as="geometry">
            <mxPoint x="180" y="400" as="sourcePoint" />
            <mxPoint x="220" y="400" as="targetPoint" />
          </mxGeometry>
        </mxCell>
        <mxCell id="C50PbBCwyJRlSNq6Uq3W-101" value="Label" style="edgeLabel;resizable=0;html=1;align=center;verticalAlign=middle;" connectable="0" vertex="1" parent="C50PbBCwyJRlSNq6Uq3W-100">
          <mxGeometry relative="1" as="geometry" />
        </mxCell>
        <mxCell id="C50PbBCwyJRlSNq6Uq3W-102" value="" style="endArrow=classic;html=1;rounded=0;entryX=-0.002;entryY=0.216;entryDx=0;entryDy=0;entryPerimeter=0;" edge="1" parent="1" target="C50PbBCwyJRlSNq6Uq3W-2">
          <mxGeometry relative="1" as="geometry">
            <mxPoint x="180" y="380" as="sourcePoint" />
            <mxPoint x="550" y="430" as="targetPoint" />
          </mxGeometry>
        </mxCell>
        <mxCell id="C50PbBCwyJRlSNq6Uq3W-103" value="Label" style="edgeLabel;resizable=0;html=1;align=center;verticalAlign=middle;" connectable="0" vertex="1" parent="C50PbBCwyJRlSNq6Uq3W-102">
          <mxGeometry relative="1" as="geometry" />
        </mxCell>
        <mxCell id="C50PbBCwyJRlSNq6Uq3W-104" value="" style="endArrow=classic;html=1;rounded=0;entryX=-0.015;entryY=0.145;entryDx=0;entryDy=0;entryPerimeter=0;" edge="1" parent="1" target="C50PbBCwyJRlSNq6Uq3W-2">
          <mxGeometry relative="1" as="geometry">
            <mxPoint x="180" y="361" as="sourcePoint" />
            <mxPoint x="550" y="430" as="targetPoint" />
          </mxGeometry>
        </mxCell>
        <mxCell id="C50PbBCwyJRlSNq6Uq3W-105" value="Label" style="edgeLabel;resizable=0;html=1;align=center;verticalAlign=middle;" connectable="0" vertex="1" parent="C50PbBCwyJRlSNq6Uq3W-104">
          <mxGeometry relative="1" as="geometry" />
        </mxCell>
      </root>
    </mxGraphModel>
  </diagram>
</mxfile>
